<mxfile host="Electron" agent="Mozilla/5.0 (Macintosh; Intel Mac OS X 10_15_7) AppleWebKit/537.36 (KHTML, like Gecko) draw.io/26.2.15 Chrome/134.0.6998.205 Electron/35.2.1 Safari/537.36" version="26.2.15">
  <diagram name="Page-1" id="bcClqkJIis-EnvAhav-X">
    <mxGraphModel dx="1186" dy="882" grid="1" gridSize="10" guides="1" tooltips="1" connect="1" arrows="1" fold="1" page="1" pageScale="1" pageWidth="850" pageHeight="1100" math="0" shadow="0">
      <root>
        <mxCell id="0" />
        <mxCell id="1" parent="0" />
        <mxCell id="ebd3-bVjO7eMPWP25hP1-1" value="&lt;font style=&quot;font-size: 18px;&quot;&gt;&lt;b&gt;Buffer Write (BW)&lt;/b&gt;&lt;/font&gt;" style="text;html=1;align=center;verticalAlign=middle;resizable=0;points=[];autosize=1;strokeColor=none;fillColor=none;" vertex="1" parent="1">
          <mxGeometry x="30" y="190" width="170" height="40" as="geometry" />
        </mxCell>
        <mxCell id="ebd3-bVjO7eMPWP25hP1-2" value="" style="endArrow=classic;html=1;rounded=0;exitX=0.994;exitY=0.5;exitDx=0;exitDy=0;exitPerimeter=0;entryX=0.431;entryY=0.933;entryDx=0;entryDy=0;entryPerimeter=0;" edge="1" parent="1" source="ebd3-bVjO7eMPWP25hP1-1" target="ebd3-bVjO7eMPWP25hP1-3">
          <mxGeometry width="50" height="50" relative="1" as="geometry">
            <mxPoint x="270" y="100" as="sourcePoint" />
            <mxPoint x="330" y="90" as="targetPoint" />
          </mxGeometry>
        </mxCell>
        <mxCell id="ebd3-bVjO7eMPWP25hP1-3" value="&lt;font style=&quot;font-size: 16px;&quot;&gt;Buffer Organization&lt;/font&gt;" style="text;html=1;align=center;verticalAlign=middle;resizable=0;points=[];autosize=1;strokeColor=none;fillColor=none;rounded=1;arcSize=0;" vertex="1" parent="1">
          <mxGeometry x="220" y="70" width="160" height="30" as="geometry" />
        </mxCell>
        <mxCell id="ebd3-bVjO7eMPWP25hP1-4" value="" style="endArrow=classic;html=1;rounded=0;exitX=0.988;exitY=0.033;exitDx=0;exitDy=0;exitPerimeter=0;entryX=-0.027;entryY=0.5;entryDx=0;entryDy=0;entryPerimeter=0;" edge="1" parent="1" source="ebd3-bVjO7eMPWP25hP1-3" target="ebd3-bVjO7eMPWP25hP1-5">
          <mxGeometry width="50" height="50" relative="1" as="geometry">
            <mxPoint x="480" y="50" as="sourcePoint" />
            <mxPoint x="601" y="50" as="targetPoint" />
          </mxGeometry>
        </mxCell>
        <mxCell id="ebd3-bVjO7eMPWP25hP1-5" value="&lt;font style=&quot;font-size: 16px;&quot;&gt;Single buffer&lt;/font&gt;" style="text;html=1;align=center;verticalAlign=middle;resizable=0;points=[];autosize=1;strokeColor=none;fillColor=none;" vertex="1" parent="1">
          <mxGeometry x="520" y="56" width="110" height="30" as="geometry" />
        </mxCell>
        <mxCell id="ebd3-bVjO7eMPWP25hP1-6" value="" style="endArrow=classic;html=1;rounded=0;exitX=0.994;exitY=0.9;exitDx=0;exitDy=0;exitPerimeter=0;entryX=-0.029;entryY=0.433;entryDx=0;entryDy=0;entryPerimeter=0;" edge="1" parent="1" source="ebd3-bVjO7eMPWP25hP1-3" target="ebd3-bVjO7eMPWP25hP1-7">
          <mxGeometry width="50" height="50" relative="1" as="geometry">
            <mxPoint x="480" y="120" as="sourcePoint" />
            <mxPoint x="601" y="120" as="targetPoint" />
          </mxGeometry>
        </mxCell>
        <mxCell id="ebd3-bVjO7eMPWP25hP1-7" value="&lt;font style=&quot;font-size: 16px;&quot;&gt;multi buffer (VC)&lt;/font&gt;" style="text;html=1;align=center;verticalAlign=middle;resizable=0;points=[];autosize=1;strokeColor=none;fillColor=none;" vertex="1" parent="1">
          <mxGeometry x="520" y="84" width="140" height="30" as="geometry" />
        </mxCell>
        <mxCell id="ebd3-bVjO7eMPWP25hP1-8" value="&lt;font style=&quot;font-size: 16px;&quot;&gt;Buffering Techniques&lt;/font&gt;" style="text;html=1;align=center;verticalAlign=middle;resizable=0;points=[];autosize=1;strokeColor=none;fillColor=none;" vertex="1" parent="1">
          <mxGeometry x="250" y="202" width="170" height="30" as="geometry" />
        </mxCell>
        <mxCell id="ebd3-bVjO7eMPWP25hP1-9" value="" style="endArrow=classic;html=1;rounded=0;exitX=1;exitY=0.6;exitDx=0;exitDy=0;exitPerimeter=0;entryX=-0.018;entryY=0.4;entryDx=0;entryDy=0;entryPerimeter=0;" edge="1" parent="1" source="ebd3-bVjO7eMPWP25hP1-1" target="ebd3-bVjO7eMPWP25hP1-8">
          <mxGeometry width="50" height="50" relative="1" as="geometry">
            <mxPoint x="219" y="100" as="sourcePoint" />
            <mxPoint x="340" y="100" as="targetPoint" />
          </mxGeometry>
        </mxCell>
        <mxCell id="ebd3-bVjO7eMPWP25hP1-10" value="" style="endArrow=classic;html=1;rounded=0;exitX=1;exitY=0.233;exitDx=0;exitDy=0;exitPerimeter=0;entryX=0.006;entryY=0.5;entryDx=0;entryDy=0;entryPerimeter=0;" edge="1" parent="1" source="ebd3-bVjO7eMPWP25hP1-8" target="ebd3-bVjO7eMPWP25hP1-13">
          <mxGeometry width="50" height="50" relative="1" as="geometry">
            <mxPoint x="426" y="184" as="sourcePoint" />
            <mxPoint x="540" y="190" as="targetPoint" />
          </mxGeometry>
        </mxCell>
        <mxCell id="ebd3-bVjO7eMPWP25hP1-11" value="" style="endArrow=classic;html=1;rounded=0;exitX=0.982;exitY=0.467;exitDx=0;exitDy=0;exitPerimeter=0;entryX=0.009;entryY=0.5;entryDx=0;entryDy=0;entryPerimeter=0;" edge="1" parent="1" source="ebd3-bVjO7eMPWP25hP1-8" target="ebd3-bVjO7eMPWP25hP1-14">
          <mxGeometry width="50" height="50" relative="1" as="geometry">
            <mxPoint x="425" y="234.5" as="sourcePoint" />
            <mxPoint x="546" y="234.5" as="targetPoint" />
          </mxGeometry>
        </mxCell>
        <mxCell id="ebd3-bVjO7eMPWP25hP1-12" value="" style="endArrow=classic;html=1;rounded=0;exitX=0.982;exitY=0.733;exitDx=0;exitDy=0;exitPerimeter=0;entryX=0;entryY=0.5;entryDx=0;entryDy=0;entryPerimeter=0;" edge="1" parent="1" source="ebd3-bVjO7eMPWP25hP1-8" target="ebd3-bVjO7eMPWP25hP1-15">
          <mxGeometry width="50" height="50" relative="1" as="geometry">
            <mxPoint x="425" y="270" as="sourcePoint" />
            <mxPoint x="546" y="270" as="targetPoint" />
          </mxGeometry>
        </mxCell>
        <mxCell id="ebd3-bVjO7eMPWP25hP1-13" value="&lt;font style=&quot;font-size: 16px;&quot;&gt;Wormhole Switching&lt;/font&gt;" style="text;html=1;align=center;verticalAlign=middle;resizable=0;points=[];autosize=1;strokeColor=none;fillColor=none;" vertex="1" parent="1">
          <mxGeometry x="500" y="172" width="170" height="30" as="geometry" />
        </mxCell>
        <mxCell id="ebd3-bVjO7eMPWP25hP1-14" value="&lt;font style=&quot;font-size: 16px;&quot;&gt;Virtual Cut-through switching&lt;/font&gt;" style="text;html=1;align=center;verticalAlign=middle;resizable=0;points=[];autosize=1;strokeColor=none;fillColor=none;" vertex="1" parent="1">
          <mxGeometry x="500" y="202" width="230" height="30" as="geometry" />
        </mxCell>
        <mxCell id="ebd3-bVjO7eMPWP25hP1-15" value="&lt;font style=&quot;font-size: 16px;&quot;&gt;Buffered vs Bufferless NoC&lt;/font&gt;" style="text;html=1;align=center;verticalAlign=middle;resizable=0;points=[];autosize=1;strokeColor=none;fillColor=none;" vertex="1" parent="1">
          <mxGeometry x="500" y="232" width="220" height="30" as="geometry" />
        </mxCell>
        <mxCell id="ebd3-bVjO7eMPWP25hP1-16" value="&lt;font style=&quot;font-size: 16px;&quot;&gt;Backpressure and&amp;nbsp;&lt;/font&gt;&lt;div&gt;&lt;font style=&quot;font-size: 16px;&quot;&gt;Flow Control&lt;/font&gt;&lt;/div&gt;" style="text;html=1;align=center;verticalAlign=middle;resizable=0;points=[];autosize=1;strokeColor=none;fillColor=none;" vertex="1" parent="1">
          <mxGeometry x="220" y="345" width="160" height="50" as="geometry" />
        </mxCell>
        <mxCell id="ebd3-bVjO7eMPWP25hP1-17" value="" style="endArrow=classic;html=1;rounded=0;exitX=0.994;exitY=0.3;exitDx=0;exitDy=0;exitPerimeter=0;entryX=0.018;entryY=0.5;entryDx=0;entryDy=0;entryPerimeter=0;" edge="1" parent="1" source="ebd3-bVjO7eMPWP25hP1-16" target="ebd3-bVjO7eMPWP25hP1-18">
          <mxGeometry width="50" height="50" relative="1" as="geometry">
            <mxPoint x="426" y="360" as="sourcePoint" />
            <mxPoint x="547" y="360" as="targetPoint" />
          </mxGeometry>
        </mxCell>
        <mxCell id="ebd3-bVjO7eMPWP25hP1-18" value="&lt;font style=&quot;font-size: 16px;&quot;&gt;Credit based&lt;/font&gt;" style="text;html=1;align=center;verticalAlign=middle;resizable=0;points=[];autosize=1;strokeColor=none;fillColor=none;" vertex="1" parent="1">
          <mxGeometry x="510" y="345" width="110" height="30" as="geometry" />
        </mxCell>
        <mxCell id="ebd3-bVjO7eMPWP25hP1-19" value="" style="endArrow=classic;html=1;rounded=0;exitX=0.994;exitY=0.78;exitDx=0;exitDy=0;exitPerimeter=0;entryX=0;entryY=0.5;entryDx=0;entryDy=0;entryPerimeter=0;" edge="1" parent="1" source="ebd3-bVjO7eMPWP25hP1-16" target="ebd3-bVjO7eMPWP25hP1-20">
          <mxGeometry width="50" height="50" relative="1" as="geometry">
            <mxPoint x="426" y="390" as="sourcePoint" />
            <mxPoint x="540" y="390" as="targetPoint" />
          </mxGeometry>
        </mxCell>
        <mxCell id="ebd3-bVjO7eMPWP25hP1-20" value="&lt;font style=&quot;font-size: 16px;&quot;&gt;Acknowledgement based&lt;/font&gt;" style="text;html=1;align=center;verticalAlign=middle;resizable=0;points=[];autosize=1;strokeColor=none;fillColor=none;" vertex="1" parent="1">
          <mxGeometry x="510" y="369" width="200" height="30" as="geometry" />
        </mxCell>
        <mxCell id="ebd3-bVjO7eMPWP25hP1-21" value="" style="endArrow=classic;html=1;rounded=0;exitX=0.988;exitY=0.75;exitDx=0;exitDy=0;exitPerimeter=0;entryX=0.406;entryY=0.06;entryDx=0;entryDy=0;entryPerimeter=0;" edge="1" parent="1" source="ebd3-bVjO7eMPWP25hP1-1" target="ebd3-bVjO7eMPWP25hP1-16">
          <mxGeometry width="50" height="50" relative="1" as="geometry">
            <mxPoint x="221" y="118" as="sourcePoint" />
            <mxPoint x="270" y="370" as="targetPoint" />
          </mxGeometry>
        </mxCell>
      </root>
    </mxGraphModel>
  </diagram>
</mxfile>
